<?xml version="1.0" encoding="UTF-8"?>
<!DOCTYPE svg PUBLIC "-//W3C//DTD SVG 1.1//EN" "http://www.w3.org/Graphics/SVG/1.1/DTD/svg11.dtd">
<svg xmlns="http://www.w3.org/2000/svg" version="1.1" width="132px" height="132px" style="shape-rendering:geometricPrecision; text-rendering:geometricPrecision; image-rendering:optimizeQuality; fill-rule:evenodd; clip-rule:evenodd" xmlns:xlink="http://www.w3.org/1999/xlink">
<g><path style="opacity:0.966" fill="#333333" d="M 63.5,-0.5 C 64.5,-0.5 65.5,-0.5 66.5,-0.5C 72.9878,0.883622 79.6544,2.05029 86.5,3C 89.4376,3.69579 92.1043,4.86246 94.5,6.5C 97.3283,8.47011 100.328,10.3034 103.5,12C 105.192,13.3073 106.525,14.8073 107.5,16.5C 100.832,15.2203 94.1653,15.387 87.5,17C 86.944,17.3826 86.6107,17.8826 86.5,18.5C 86.1667,18.5 85.8333,18.5 85.5,18.5C 80.9991,19.0873 76.9991,20.7539 73.5,23.5C 71.326,23.7497 69.6594,24.7497 68.5,26.5C 64.9505,27.7232 61.9505,29.7232 59.5,32.5C 57.2512,33.0798 55.5846,34.4131 54.5,36.5C 48.8333,40.1667 44.1667,44.8333 40.5,50.5C 38.7376,51.2623 37.7376,52.5956 37.5,54.5C 35.1782,55.8021 33.8449,57.8021 33.5,60.5C 32.0937,60.9731 31.427,61.9731 31.5,63.5C 30.4625,64.9303 29.7959,66.597 29.5,68.5C 26.2644,75.5773 26.9311,82.2439 31.5,88.5C 34.1226,90.2655 37.1226,90.9321 40.5,90.5C 43.1522,90.5905 45.4855,89.9238 47.5,88.5C 50.4771,86.5333 53.4771,84.5333 56.5,82.5C 57.5,81.8333 58.5,81.1667 59.5,80.5C 60.4916,80.3284 61.1583,80.6618 61.5,81.5C 59.4131,82.5846 58.0798,84.2512 57.5,86.5C 55.8333,87.5 54.5,88.8333 53.5,90.5C 49.8333,93.5 46.5,96.8333 43.5,100.5C 39.8998,102.43 36.8998,105.097 34.5,108.5C 33.5,108.833 32.8333,109.5 32.5,110.5C 29.5926,112.315 28.2593,114.981 28.5,118.5C 28.5569,119.609 28.8902,120.609 29.5,121.5C 18.7495,114.913 10.5828,105.913 5,94.5C 2.99272,88.7733 1.15939,83.1066 -0.5,77.5C -0.5,69.5 -0.5,61.5 -0.5,53.5C 4.63581,30.8891 17.6358,14.5558 38.5,4.5C 46.9878,3.07173 55.3211,1.40507 63.5,-0.5 Z"/></g>
<g><path style="opacity:0.473" fill="#494949" d="M 50.5,-0.5 C 54.8333,-0.5 59.1667,-0.5 63.5,-0.5C 55.3211,1.40507 46.9878,3.07173 38.5,4.5C 42.3811,2.53075 46.3811,0.864079 50.5,-0.5 Z"/></g>
<g><path style="opacity:0.49" fill="#535353" d="M 66.5,-0.5 C 71.1667,-0.5 75.8333,-0.5 80.5,-0.5C 86.3974,1.24437 92.0641,3.5777 97.5,6.5C 96.5,6.5 95.5,6.5 94.5,6.5C 92.1043,4.86246 89.4376,3.69579 86.5,3C 79.6544,2.05029 72.9878,0.883622 66.5,-0.5 Z"/></g>
<g><path style="opacity:1" fill="#24596d" d="M 107.5,16.5 C 108.167,16.5 108.5,16.8333 108.5,17.5C 104.011,16.4285 99.6776,16.4285 95.5,17.5C 92.4299,17.3677 89.4299,17.701 86.5,18.5C 86.6107,17.8826 86.944,17.3826 87.5,17C 94.1653,15.387 100.832,15.2203 107.5,16.5 Z"/></g>
<g><path style="opacity:0.416" fill="#424445" d="M 94.5,6.5 C 95.5,6.5 96.5,6.5 97.5,6.5C 105.282,10.2088 111.616,15.5421 116.5,22.5C 114.851,21.5272 113.184,20.5272 111.5,19.5C 109.973,19.573 108.973,18.9063 108.5,17.5C 108.5,16.8333 108.167,16.5 107.5,16.5C 106.525,14.8073 105.192,13.3073 103.5,12C 100.328,10.3034 97.3283,8.47011 94.5,6.5 Z"/></g>
<g><path style="opacity:1" fill="#087a9e" d="M 95.5,17.5 C 99.6776,16.4285 104.011,16.4285 108.5,17.5C 108.973,18.9063 109.973,19.573 111.5,19.5C 111.854,23.6372 111.354,27.6372 110,31.5C 106.284,35.7185 102.117,39.3851 97.5,42.5C 97.1667,42.5 96.8333,42.5 96.5,42.5C 96.5,40.1667 96.5,37.8333 96.5,35.5C 94.7839,35.6287 93.1172,35.962 91.5,36.5C 95.7648,33.9056 99.4314,30.5722 102.5,26.5C 103.404,25.791 103.737,24.791 103.5,23.5C 100.5,23.5 97.5,23.5 94.5,23.5C 96.51,21.6834 96.8434,19.6834 95.5,17.5 Z"/></g>
<g><path style="opacity:1" fill="#0288a9" d="M 95.5,17.5 C 96.8434,19.6834 96.51,21.6834 94.5,23.5C 93.8333,23.5 93.5,23.8333 93.5,24.5C 90.8478,24.4095 88.5145,25.0762 86.5,26.5C 85.5084,26.3284 84.8417,26.6618 84.5,27.5C 83.391,27.5569 82.391,27.8902 81.5,28.5C 81.5,26.1667 81.5,23.8333 81.5,21.5C 82.8333,20.5 84.1667,19.5 85.5,18.5C 85.8333,18.5 86.1667,18.5 86.5,18.5C 89.4299,17.701 92.4299,17.3677 95.5,17.5 Z"/></g>
<g><path style="opacity:0.983" fill="#333334" d="M 111.5,19.5 C 113.184,20.5272 114.851,21.5272 116.5,22.5C 124.123,30.4115 129.123,39.7448 131.5,50.5C 131.5,60.5 131.5,70.5 131.5,80.5C 128.963,90.9073 124.296,100.241 117.5,108.5C 112.621,112.298 107.621,116.131 102.5,120C 97.6074,122.733 92.6074,125.067 87.5,127C 86.7476,127.671 86.4142,128.504 86.5,129.5C 86.1667,129.5 85.8333,129.5 85.5,129.5C 81.1829,129.083 77.1829,129.75 73.5,131.5C 70.5,131.5 67.5,131.5 64.5,131.5C 58.6985,130.318 52.6985,129.652 46.5,129.5C 39.8662,128.681 34.1995,126.014 29.5,121.5C 28.8902,120.609 28.5569,119.609 28.5,118.5C 30.8201,120.226 33.4867,120.893 36.5,120.5C 38.0269,120.573 39.0269,119.906 39.5,118.5C 39.8333,117.833 40.1667,117.167 40.5,116.5C 43.5,114.167 46.1667,111.5 48.5,108.5C 50.5,106.833 52.5,105.167 54.5,103.5C 56.5,102.167 58.1667,100.5 59.5,98.5C 61.7488,97.9202 63.4154,96.5869 64.5,94.5C 64.5,94.1667 64.5,93.8333 64.5,93.5C 67.8103,91.5179 70.8103,89.1846 73.5,86.5C 79.0067,83.6124 83.3401,79.6124 86.5,74.5C 84.1667,74.5 81.8333,74.5 79.5,74.5C 78.6618,74.1583 78.3284,73.4916 78.5,72.5C 80.5869,71.4154 81.9202,69.7488 82.5,67.5C 84.5869,66.4154 85.9202,64.7488 86.5,62.5C 87.2485,60.6675 88.2485,59.0009 89.5,57.5C 91.767,54.7291 94.267,52.0625 97,49.5C 97.5791,48.0715 97.4124,46.7382 96.5,45.5C 96.5569,44.391 96.8902,43.391 97.5,42.5C 102.117,39.3851 106.284,35.7185 110,31.5C 111.354,27.6372 111.854,23.6372 111.5,19.5 Z"/></g>
<g><path style="opacity:1" fill="#1c758b" d="M 85.5,18.5 C 84.1667,19.5 82.8333,20.5 81.5,21.5C 78.994,22.7496 76.3274,23.4162 73.5,23.5C 76.9991,20.7539 80.9991,19.0873 85.5,18.5 Z"/></g>
<g><path style="opacity:1" fill="#2d4652" d="M 93.5,24.5 C 93.5,23.8333 93.8333,23.5 94.5,23.5C 97.5,23.5 100.5,23.5 103.5,23.5C 103.737,24.791 103.404,25.791 102.5,26.5C 100.012,24.6122 97.0122,23.9455 93.5,24.5 Z"/></g>
<g><path style="opacity:1" fill="#323435" d="M 93.5,24.5 C 97.0122,23.9455 100.012,24.6122 102.5,26.5C 99.4314,30.5722 95.7648,33.9056 91.5,36.5C 88.904,37.0549 86.5707,38.0549 84.5,39.5C 83.209,39.7373 82.209,39.404 81.5,38.5C 79.2911,37.0242 77.9577,37.6909 77.5,40.5C 76.8529,41.2739 76.5195,42.2739 76.5,43.5C 76.3402,45.3545 77.0069,46.6879 78.5,47.5C 80.8333,48.1667 83.1667,48.8333 85.5,49.5C 83.1667,51.1667 81.1667,53.1667 79.5,55.5C 75.5373,58.1285 71.8706,61.1285 68.5,64.5C 62.4918,68.5029 56.4918,72.5029 50.5,76.5C 46.8112,78.6737 42.8112,79.6737 38.5,79.5C 37.8333,79.5 37.5,79.1667 37.5,78.5C 37.5465,75.0314 38.2132,71.698 39.5,68.5C 39.3284,67.5084 39.6618,66.8417 40.5,66.5C 41.9063,66.0269 42.573,65.0269 42.5,63.5C 44.2624,62.7377 45.2624,61.4044 45.5,59.5C 47.2624,58.7377 48.2624,57.4044 48.5,55.5C 48.5,55.1667 48.5,54.8333 48.5,54.5C 53.5,49.8333 58.5,45.1667 63.5,40.5C 67.1846,37.3269 71.1846,34.6602 75.5,32.5C 77.0269,32.573 78.0269,31.9063 78.5,30.5C 80.9674,30.2451 82.9674,29.2451 84.5,27.5C 84.8417,26.6618 85.5084,26.3284 86.5,26.5C 89.1522,26.5905 91.4855,25.9238 93.5,24.5 Z"/></g>
<g><path style="opacity:1" fill="#1d768a" d="M 73.5,23.5 C 72.5144,25.4077 70.8477,26.4077 68.5,26.5C 69.6594,24.7497 71.326,23.7497 73.5,23.5 Z"/></g>
<g><path style="opacity:1" fill="#0891ab" d="M 81.5,21.5 C 81.5,23.8333 81.5,26.1667 81.5,28.5C 79.9731,28.427 78.9731,29.0937 78.5,30.5C 76.9731,30.427 75.9731,31.0937 75.5,32.5C 71.1846,34.6602 67.1846,37.3269 63.5,40.5C 64.1587,37.5448 64.4921,34.5448 64.5,31.5C 62.7839,31.6287 61.1172,31.962 59.5,32.5C 61.9505,29.7232 64.9505,27.7232 68.5,26.5C 70.8477,26.4077 72.5144,25.4077 73.5,23.5C 76.3274,23.4162 78.994,22.7496 81.5,21.5 Z"/></g>
<g><path style="opacity:1" fill="#2d4a55" d="M 93.5,24.5 C 91.4855,25.9238 89.1522,26.5905 86.5,26.5C 88.5145,25.0762 90.8478,24.4095 93.5,24.5 Z"/></g>
<g><path style="opacity:1" fill="#2a5360" d="M 84.5,27.5 C 82.9674,29.2451 80.9674,30.2451 78.5,30.5C 78.9731,29.0937 79.9731,28.427 81.5,28.5C 82.391,27.8902 83.391,27.5569 84.5,27.5 Z"/></g>
<g><path style="opacity:1" fill="#2b4f59" d="M 78.5,30.5 C 78.0269,31.9063 77.0269,32.573 75.5,32.5C 75.9731,31.0937 76.9731,30.427 78.5,30.5 Z"/></g>
<g><path style="opacity:1" fill="#069eb3" d="M 63.5,40.5 C 58.5,45.1667 53.5,49.8333 48.5,54.5C 48.8128,50.9581 48.4794,47.6248 47.5,44.5C 49.8333,41.8333 52.1667,39.1667 54.5,36.5C 55.5846,34.4131 57.2512,33.0798 59.5,32.5C 61.1172,31.962 62.7839,31.6287 64.5,31.5C 64.4921,34.5448 64.1587,37.5448 63.5,40.5 Z"/></g>
<g><path style="opacity:1" fill="#226779" d="M 81.5,38.5 C 79.9382,38.7329 78.6049,39.3995 77.5,40.5C 77.9577,37.6909 79.2911,37.0242 81.5,38.5 Z"/></g>
<g><path style="opacity:1" fill="#058aa8" d="M 81.5,38.5 C 82.209,39.404 83.209,39.7373 84.5,39.5C 86.1667,39.5 87.8333,39.5 89.5,39.5C 90.0398,43.269 88.7065,45.9357 85.5,47.5C 83.1667,47.5 80.8333,47.5 78.5,47.5C 77.0069,46.6879 76.3402,45.3545 76.5,43.5C 76.5195,42.2739 76.8529,41.2739 77.5,40.5C 78.6049,39.3995 79.9382,38.7329 81.5,38.5 Z"/></g>
<g><path style="opacity:1" fill="#05a6b8" d="M 47.5,44.5 C 48.4794,47.6248 48.8128,50.9581 48.5,54.5C 48.5,54.8333 48.5,55.1667 48.5,55.5C 46.7376,56.2623 45.7376,57.5956 45.5,59.5C 43.7376,60.2623 42.7376,61.5956 42.5,63.5C 41.8333,63.8333 41.1667,64.1667 40.5,64.5C 40.8226,60.774 40.4892,57.1073 39.5,53.5C 38.8165,53.8627 38.1499,54.1961 37.5,54.5C 37.7376,52.5956 38.7376,51.2623 40.5,50.5C 42.8333,48.5 45.1667,46.5 47.5,44.5 Z"/></g>
<g><path style="opacity:1" fill="#2d4650" d="M 96.5,42.5 C 96.8333,42.5 97.1667,42.5 97.5,42.5C 96.8902,43.391 96.5569,44.391 96.5,45.5C 92.7035,44.9114 92.7035,43.9114 96.5,42.5 Z"/></g>
<g><path style="opacity:1" fill="#1f7f8d" d="M 54.5,36.5 C 52.1667,39.1667 49.8333,41.8333 47.5,44.5C 45.1667,46.5 42.8333,48.5 40.5,50.5C 44.1667,44.8333 48.8333,40.1667 54.5,36.5 Z"/></g>
<g><path style="opacity:1" fill="#285564" d="M 78.5,47.5 C 80.8333,47.5 83.1667,47.5 85.5,47.5C 86.4916,47.3284 87.1583,47.6618 87.5,48.5C 86.8333,48.8333 86.1667,49.1667 85.5,49.5C 83.1667,48.8333 80.8333,48.1667 78.5,47.5 Z"/></g>
<g><path style="opacity:1" fill="#0981a1" d="M 96.5,42.5 C 92.7035,43.9114 92.7035,44.9114 96.5,45.5C 97.4124,46.7382 97.5791,48.0715 97,49.5C 94.267,52.0625 91.767,54.7291 89.5,57.5C 90.0545,53.9878 89.3878,50.9878 87.5,48.5C 87.1583,47.6618 86.4916,47.3284 85.5,47.5C 88.7065,45.9357 90.0398,43.269 89.5,39.5C 87.8333,39.5 86.1667,39.5 84.5,39.5C 86.5707,38.0549 88.904,37.0549 91.5,36.5C 93.1172,35.962 94.7839,35.6287 96.5,35.5C 96.5,37.8333 96.5,40.1667 96.5,42.5 Z"/></g>
<g><path style="opacity:1" fill="#0787a6" d="M 87.5,48.5 C 89.3878,50.9878 90.0545,53.9878 89.5,57.5C 88.2485,59.0009 87.2485,60.6675 86.5,62.5C 84.4131,63.5846 83.0798,65.2512 82.5,67.5C 81.8333,67.8333 81.1667,68.1667 80.5,68.5C 81.3307,64.5239 81.4973,60.5239 81,56.5C 80.6174,55.944 80.1174,55.6107 79.5,55.5C 81.1667,53.1667 83.1667,51.1667 85.5,49.5C 86.1667,49.1667 86.8333,48.8333 87.5,48.5 Z"/></g>
<g><path style="opacity:1" fill="#2e5259" d="M 48.5,55.5 C 48.2624,57.4044 47.2624,58.7377 45.5,59.5C 45.7376,57.5956 46.7376,56.2623 48.5,55.5 Z"/></g>
<g><path style="opacity:1" fill="#088da9" d="M 79.5,55.5 C 80.1174,55.6107 80.6174,55.944 81,56.5C 81.4973,60.5239 81.3307,64.5239 80.5,68.5C 79.3995,69.6049 78.7329,70.9382 78.5,72.5C 76.457,73.5794 75.1237,75.246 74.5,77.5C 74.1667,77.5 73.8333,77.5 73.5,77.5C 73.8275,72.456 73.4941,67.456 72.5,62.5C 71.3777,63.6302 70.0443,64.2969 68.5,64.5C 71.8706,61.1285 75.5373,58.1285 79.5,55.5 Z"/></g>
<g><path style="opacity:1" fill="#1b8f9b" d="M 37.5,54.5 C 36.7023,56.9663 35.369,58.9663 33.5,60.5C 33.8449,57.8021 35.1782,55.8021 37.5,54.5 Z"/></g>
<g><path style="opacity:1" fill="#2e5157" d="M 45.5,59.5 C 45.2624,61.4044 44.2624,62.7377 42.5,63.5C 42.7376,61.5956 43.7376,60.2623 45.5,59.5 Z"/></g>
<g><path style="opacity:1" fill="#26737c" d="M 33.5,60.5 C 33.573,62.0269 32.9063,63.0269 31.5,63.5C 31.427,61.9731 32.0937,60.9731 33.5,60.5 Z"/></g>
<g><path style="opacity:1" fill="#0894ac" d="M 73.5,77.5 C 72.5244,78.8149 71.5244,80.1482 70.5,81.5C 70.9569,82.2975 71.6236,82.6309 72.5,82.5C 73.4345,83.5676 73.7678,84.901 73.5,86.5C 70.8103,89.1846 67.8103,91.5179 64.5,93.5C 65.0894,89.0293 64.4228,85.0293 62.5,81.5C 64.5566,77.933 67.2232,74.7663 70.5,72C 70.1667,71.8333 69.8333,71.6667 69.5,71.5C 66.121,74.5507 62.7877,77.5507 59.5,80.5C 58.5,81.1667 57.5,81.8333 56.5,82.5C 56.8076,80.076 56.4742,77.7427 55.5,75.5C 53.9291,76.3094 52.2624,76.6427 50.5,76.5C 56.4918,72.5029 62.4918,68.5029 68.5,64.5C 70.0443,64.2969 71.3777,63.6302 72.5,62.5C 73.4941,67.456 73.8275,72.456 73.5,77.5 Z"/></g>
<g><path style="opacity:1" fill="#2a5e66" d="M 42.5,63.5 C 42.573,65.0269 41.9063,66.0269 40.5,66.5C 40.5,65.8333 40.5,65.1667 40.5,64.5C 41.1667,64.1667 41.8333,63.8333 42.5,63.5 Z"/></g>
<g><path style="opacity:1" fill="#2e4952" d="M 86.5,62.5 C 85.9202,64.7488 84.5869,66.4154 82.5,67.5C 83.0798,65.2512 84.4131,63.5846 86.5,62.5 Z"/></g>
<g><path style="opacity:1" fill="#208791" d="M 31.5,63.5 C 31.8799,65.698 31.2132,67.3646 29.5,68.5C 29.7959,66.597 30.4625,64.9303 31.5,63.5 Z"/></g>
<g><path style="opacity:1" fill="#2f474f" d="M 82.5,67.5 C 81.9202,69.7488 80.5869,71.4154 78.5,72.5C 78.7329,70.9382 79.3995,69.6049 80.5,68.5C 81.1667,68.1667 81.8333,67.8333 82.5,67.5 Z"/></g>
<g><path style="opacity:1" fill="#207e89" d="M 39.5,68.5 C 38.2132,71.698 37.5465,75.0314 37.5,78.5C 36.3775,76.7116 36.2109,74.7116 37,72.5C 37.2004,70.6803 38.0337,69.347 39.5,68.5 Z"/></g>
<g><path style="opacity:1" fill="#275d69" d="M 62.5,81.5 C 62.1667,81.5 61.8333,81.5 61.5,81.5C 61.1583,80.6618 60.4916,80.3284 59.5,80.5C 62.7877,77.5507 66.121,74.5507 69.5,71.5C 69.8333,71.6667 70.1667,71.8333 70.5,72C 67.2232,74.7663 64.5566,77.933 62.5,81.5 Z"/></g>
<g><path style="opacity:1" fill="#2d4850" d="M 78.5,72.5 C 78.3284,73.4916 78.6618,74.1583 79.5,74.5C 78.1667,75.8333 76.8333,77.1667 75.5,78.5C 74.8333,78.5 74.5,78.1667 74.5,77.5C 75.1237,75.246 76.457,73.5794 78.5,72.5 Z"/></g>
<g><path style="opacity:1" fill="#0a8aa5" d="M 79.5,74.5 C 81.8333,74.5 84.1667,74.5 86.5,74.5C 83.3401,79.6124 79.0067,83.6124 73.5,86.5C 73.7678,84.901 73.4345,83.5676 72.5,82.5C 73.5,81.1667 74.5,79.8333 75.5,78.5C 76.8333,77.1667 78.1667,75.8333 79.5,74.5 Z"/></g>
<g><path style="opacity:1" fill="#04aebc" d="M 40.5,64.5 C 40.5,65.1667 40.5,65.8333 40.5,66.5C 39.6618,66.8417 39.3284,67.5084 39.5,68.5C 38.0337,69.347 37.2004,70.6803 37,72.5C 36.2109,74.7116 36.3775,76.7116 37.5,78.5C 37.5,79.1667 37.8333,79.5 38.5,79.5C 38.5,79.8333 38.5,80.1667 38.5,80.5C 40.2419,83.1445 40.9086,86.1445 40.5,89.5C 37.4824,89.2962 34.4824,88.9629 31.5,88.5C 26.9311,82.2439 26.2644,75.5773 29.5,68.5C 31.2132,67.3646 31.8799,65.698 31.5,63.5C 32.9063,63.0269 33.573,62.0269 33.5,60.5C 35.369,58.9663 36.7023,56.9663 37.5,54.5C 38.1499,54.1961 38.8165,53.8627 39.5,53.5C 40.4892,57.1073 40.8226,60.774 40.5,64.5 Z"/></g>
<g><path style="opacity:1" fill="#217d8b" d="M 50.5,76.5 C 49.8777,78.335 48.5444,79.5017 46.5,80C 43.854,80.4974 41.1873,80.6641 38.5,80.5C 38.5,80.1667 38.5,79.8333 38.5,79.5C 42.8112,79.6737 46.8112,78.6737 50.5,76.5 Z"/></g>
<g><path style="opacity:1" fill="#06a4b6" d="M 56.5,82.5 C 53.4771,84.5333 50.4771,86.5333 47.5,88.5C 45.139,88.6741 42.8056,89.0074 40.5,89.5C 40.9086,86.1445 40.2419,83.1445 38.5,80.5C 41.1873,80.6641 43.854,80.4974 46.5,80C 48.5444,79.5017 49.8777,78.335 50.5,76.5C 52.2624,76.6427 53.9291,76.3094 55.5,75.5C 56.4742,77.7427 56.8076,80.076 56.5,82.5 Z"/></g>
<g><path style="opacity:1" fill="#1d7083" d="M 73.5,77.5 C 73.8333,77.5 74.1667,77.5 74.5,77.5C 74.5,78.1667 74.8333,78.5 75.5,78.5C 74.5,79.8333 73.5,81.1667 72.5,82.5C 71.6236,82.6309 70.9569,82.2975 70.5,81.5C 71.5244,80.1482 72.5244,78.8149 73.5,77.5 Z"/></g>
<g><path style="opacity:1" fill="#049db3" d="M 61.5,81.5 C 61.8333,81.5 62.1667,81.5 62.5,81.5C 64.4228,85.0293 65.0894,89.0293 64.5,93.5C 64.5,93.8333 64.5,94.1667 64.5,94.5C 62.2512,95.0798 60.5846,96.4131 59.5,98.5C 56.8333,99.1667 55.1667,100.833 54.5,103.5C 52.5,105.167 50.5,106.833 48.5,108.5C 48.8128,104.958 48.4794,101.625 47.5,98.5C 49.9092,96.0976 51.9092,93.4309 53.5,90.5C 54.5,88.8333 55.8333,87.5 57.5,86.5C 59.5869,85.4154 60.9202,83.7488 61.5,81.5 Z"/></g>
<g><path style="opacity:1" fill="#207686" d="M 61.5,81.5 C 60.9202,83.7488 59.5869,85.4154 57.5,86.5C 58.0798,84.2512 59.4131,82.5846 61.5,81.5 Z"/></g>
<g><path style="opacity:1" fill="#217e88" d="M 31.5,88.5 C 34.4824,88.9629 37.4824,89.2962 40.5,89.5C 40.5,89.8333 40.5,90.1667 40.5,90.5C 37.1226,90.9321 34.1226,90.2655 31.5,88.5 Z"/></g>
<g><path style="opacity:1" fill="#2f4c51" d="M 47.5,88.5 C 45.4855,89.9238 43.1522,90.5905 40.5,90.5C 40.5,90.1667 40.5,89.8333 40.5,89.5C 42.8056,89.0074 45.139,88.6741 47.5,88.5 Z"/></g>
<g><path style="opacity:1" fill="#1d808f" d="M 53.5,90.5 C 51.9092,93.4309 49.9092,96.0976 47.5,98.5C 46.3951,99.6005 45.0618,100.267 43.5,100.5C 46.5,96.8333 49.8333,93.5 53.5,90.5 Z"/></g>
<g><path style="opacity:1" fill="#2f474d" d="M 64.5,94.5 C 63.4154,96.5869 61.7488,97.9202 59.5,98.5C 60.5846,96.4131 62.2512,95.0798 64.5,94.5 Z"/></g>
<g><path style="opacity:1" fill="#03a8ba" d="M 47.5,98.5 C 48.4794,101.625 48.8128,104.958 48.5,108.5C 46.1667,111.5 43.5,114.167 40.5,116.5C 40.815,112.629 40.4816,108.962 39.5,105.5C 40.8333,103.833 42.1667,102.167 43.5,100.5C 45.0618,100.267 46.3951,99.6005 47.5,98.5 Z"/></g>
<g><path style="opacity:1" fill="#2e4f57" d="M 59.5,98.5 C 58.1667,100.5 56.5,102.167 54.5,103.5C 55.1667,100.833 56.8333,99.1667 59.5,98.5 Z"/></g>
<g><path style="opacity:1" fill="#02afbe" d="M 39.5,105.5 C 40.4816,108.962 40.815,112.629 40.5,116.5C 40.1667,117.167 39.8333,117.833 39.5,118.5C 38.391,118.557 37.391,118.89 36.5,119.5C 34.5328,119.739 32.6995,119.406 31,118.5C 30.2879,115.562 30.7879,112.896 32.5,110.5C 32.8333,109.5 33.5,108.833 34.5,108.5C 36.4113,107.925 38.078,106.925 39.5,105.5 Z"/></g>
<g><path style="opacity:1" fill="#1794a2" d="M 43.5,100.5 C 42.1667,102.167 40.8333,103.833 39.5,105.5C 38.078,106.925 36.4113,107.925 34.5,108.5C 36.8998,105.097 39.8998,102.43 43.5,100.5 Z"/></g>
<g><path style="opacity:1" fill="#1995a1" d="M 32.5,110.5 C 30.7879,112.896 30.2879,115.562 31,118.5C 32.6995,119.406 34.5328,119.739 36.5,119.5C 36.5,119.833 36.5,120.167 36.5,120.5C 33.4867,120.893 30.8201,120.226 28.5,118.5C 28.2593,114.981 29.5926,112.315 32.5,110.5 Z"/></g>
<g><path style="opacity:1" fill="#2d585e" d="M 39.5,118.5 C 39.0269,119.906 38.0269,120.573 36.5,120.5C 36.5,120.167 36.5,119.833 36.5,119.5C 37.391,118.89 38.391,118.557 39.5,118.5 Z"/></g>
<g><path style="opacity:0.11" fill="#4b4b4b" d="M 117.5,108.5 C 109.39,118.726 99.0571,125.726 86.5,129.5C 86.4142,128.504 86.7476,127.671 87.5,127C 92.6074,125.067 97.6074,122.733 102.5,120C 107.621,116.131 112.621,112.298 117.5,108.5 Z"/></g>
<g><path style="opacity:0.133" fill="#4e4e4e" d="M 46.5,129.5 C 52.6985,129.652 58.6985,130.318 64.5,131.5C 59.5,131.5 54.5,131.5 49.5,131.5C 48.5,130.833 47.5,130.167 46.5,129.5 Z"/></g>
<g><path style="opacity:0.204" fill="#5b5b5b" d="M 85.5,129.5 C 84.5,130.167 83.5,130.833 82.5,131.5C 79.5,131.5 76.5,131.5 73.5,131.5C 77.1829,129.75 81.1829,129.083 85.5,129.5 Z"/></g>
</svg>
